<?xml version="1.0" encoding="UTF-8" standalone="no"?>
<!-- Created with Inkscape (http://www.inkscape.org/) -->

<svg
   width="181.31003mm"
   height="100.55001mm"
   viewBox="0 0 685.26625 380.03154"
   version="1.1"
   id="svg1355"
   inkscape:version="1.1.2 (0a00cf5339, 2022-02-04)"
   sodipodi:docname="beechy.svg"
   xmlns:inkscape="http://www.inkscape.org/namespaces/inkscape"
   xmlns:sodipodi="http://sodipodi.sourceforge.net/DTD/sodipodi-0.dtd"
   xmlns="http://www.w3.org/2000/svg"
   xmlns:svg="http://www.w3.org/2000/svg"
   xmlns:rdf="http://www.w3.org/1999/02/22-rdf-syntax-ns#"
   xmlns:cc="http://creativecommons.org/ns#"
   xmlns:dc="http://purl.org/dc/elements/1.1/">
  <defs
     id="defs1349" />
  <sodipodi:namedview
     id="base"
     pagecolor="#ffffff"
     bordercolor="#666666"
     borderopacity="1.0"
     inkscape:pageopacity="0.0"
     inkscape:pageshadow="2"
     inkscape:zoom="0.35"
     inkscape:cx="310"
     inkscape:cy="144.28571"
     inkscape:document-units="px"
     inkscape:current-layer="layer1"
     inkscape:pagecheckerboard="0"
     showgrid="false"
     inkscape:window-width="1920"
     inkscape:window-height="1018"
     inkscape:window-x="0"
     inkscape:window-y="0"
     inkscape:window-maximized="1" />
  <metadata
     id="metadata1352">
    <rdf:RDF>
      <cc:Work
         rdf:about="">
        <dc:format>image/svg+xml</dc:format>
        <dc:type
           rdf:resource="http://purl.org/dc/dcmitype/StillImage" />
      </cc:Work>
    </rdf:RDF>
  </metadata>
  <g
     inkscape:label="Layer 1"
     inkscape:groupmode="layer"
     id="layer1"
     transform="translate(-65.745967,-377.93292)">
    <path
       fill="#000000"
       stroke="none"
       d="m 356.43627,528.29902 c 0,24.28468 -6.24973,48.17653 -18.14209,69.21135 -11.85664,21.07054 -28.96306,38.53409 -49.53361,50.71215 -20.57056,12.14233 -43.89101,18.53493 -67.64,18.53493 -23.78471,0 -47.10515,-6.3926 -67.67571,-18.53493 C 132.8743,636.04446 115.76788,618.58091 103.91124,597.51037 92.018886,576.47555 85.769146,552.5837 85.769146,528.29902 c 0,-24.3204 6.24974,-48.21225 18.142094,-69.24707 11.85664,-21.07054 28.96306,-38.53409 49.53362,-50.71215 20.57056,-12.14233 43.891,-18.53493 67.63999,-18.53493 23.78471,0 47.10516,6.3926 67.67572,18.53493 20.57055,12.17806 37.67697,29.64161 49.53361,50.71215 11.89236,21.03482 18.14209,44.92667 18.14209,69.21135 z"
       id="path71"
       style="stroke-width:0.0357128" />
    <path
       fill="#000000"
       stroke="none"
       d="m 733.27747,528.04903 c 0,24.28468 -6.24974,48.17653 -18.14209,69.21135 -11.85665,21.07054 -28.96307,38.53409 -49.53362,50.71214 -20.57056,12.14235 -43.891,18.53493 -67.6757,18.53493 -23.749,0 -47.06944,-6.39258 -67.64,-18.53493 -20.57057,-12.17805 -37.67698,-29.6416 -49.53362,-50.71214 -11.89236,-21.03482 -18.14209,-44.92667 -18.14209,-69.21135 0,-24.32041 6.24973,-48.21225 18.14209,-69.24708 11.85664,-21.07053 28.96305,-38.53407 49.53362,-50.71213 20.57056,-12.14235 43.891,-18.53494 67.64,-18.53494 23.7847,0 47.10514,6.39259 67.6757,18.53494 20.57055,12.17806 37.67697,29.6416 49.53362,50.71213 11.89235,21.03483 18.14209,44.92667 18.14209,69.21137 z"
       id="path80"
       style="stroke-width:0.0357128" />
    <path
       fill="#000000"
       stroke="none"
       d="m 410.57684,731.07615 c 0,3.10701 -0.78569,6.1426 -2.28562,8.78535 -1.49994,2.67845 -3.67841,4.89264 -6.28545,6.4283 -2.60704,1.53564 -5.57119,2.35704 -8.57107,2.35704 -2.99987,0 -5.96403,-0.8214 -8.57106,-2.35704 -2.60703,-1.53566 -4.78551,-3.74985 -6.28545,-6.4283 -1.49994,-2.64275 -2.28562,-5.67834 -2.28562,-8.78535 0,-3.0713 0.78568,-6.10689 2.28562,-8.74963 1.49994,-2.67846 3.67842,-4.89265 6.28545,-6.4283 2.60703,-1.53564 5.57119,-2.35705 8.57106,-2.35705 2.99988,0 5.96403,0.82141 8.57107,2.35705 2.60704,1.53565 4.78551,3.74984 6.28545,6.4283 1.49993,2.64274 2.28562,5.67833 2.28562,8.74963 z"
       id="path89"
       style="stroke-width:0.0357128" />
  </g>
</svg>
